<svg width="711.1879" height="669.68268" xmlns="http://www.w3.org/2000/svg">
 <title>feeling_proud</title>

 <g>
  <title>background</title>
  <rect fill="none" id="canvas_background" height="402" width="582" y="-1" x="-1"/>
 </g>
 <g>
  <title>Layer 1</title>
  <polygon id="svg_1" fill="#e6e6e6" points="516.326 380.018 516.326 565.013 547.27 615.443 549.625 619.279 671.722 619.279 674.189 380.018 516.326 380.018"/>
  <polygon id="svg_2" opacity="0.1" points="516.326 380.018 516.326 565.013 547.27 615.443 549.169 380.018 516.326 380.018"/>
  <polygon id="svg_3" fill="#e6e6e6" points="221.566 375.084 221.566 560.08 190.622 610.51 188.267 614.345 66.17 614.345 63.703 375.084 221.566 375.084"/>
  <polygon id="svg_4" opacity="0.1" points="221.566 375.084 221.566 560.08 190.622 610.51 188.723 375.084 221.566 375.084"/>
  <polygon id="svg_5" fill="#e6e6e6" points="711.188 371.385 711.188 382.484 47.67 382.484 47.67 366.451 109.335 334.385 656.923 334.385 711.188 371.385"/>
  <polygon id="svg_6" opacity="0.1" points="711.188 371.385 711.188 382.484 47.67 382.484 47.67 366.451 711.188 371.385"/>
  <polygon id="svg_7" fill="#3f3d56" points="142.635 426.883 113.035 426.883 100.702 418.25 156.201 418.25 142.635 426.883"/>
  <polygon id="svg_8" fill="#3f3d56" points="142.635 462.649 113.035 462.649 100.702 454.016 156.201 454.016 142.635 462.649"/>
  <polygon id="svg_9" fill="#3f3d56" points="142.635 513.215 113.035 513.215 100.702 504.581 156.201 504.581 142.635 513.215"/>
  <polygon id="svg_10" fill="#3f3d56" points="142.635 563.78 113.035 563.78 100.702 555.147 156.201 555.147 142.635 563.78"/>
  <polygon id="svg_11" fill="#3f3d56" points="595.257 431.816 624.857 431.816 637.19 423.183 581.691 423.183 595.257 431.816"/>
  <polygon id="svg_12" fill="#3f3d56" points="595.257 467.582 624.857 467.582 637.19 458.949 581.691 458.949 595.257 467.582"/>
  <polygon id="svg_13" fill="#3f3d56" points="595.257 518.148 624.857 518.148 637.19 509.515 581.691 509.515 595.257 518.148"/>
  <polygon id="svg_14" fill="#3f3d56" points="595.257 568.713 624.857 568.713 637.19 560.08 581.691 560.08 595.257 568.713"/>
  <path id="svg_15" fill="#3f3d56" d="m615.413838,120.456269l-249.18543,0a9.4227,9.4227 0 0 0 -9.42389,9.42389l0,167.85773a9.4227,9.4227 0 0 0 9.42389,9.42388l94.5929,0l-3.54389,22.62623s-20.25281,10.75927 -6.01251,11.07574s81.32764,0 81.32764,0s12.97448,0 -7.59479,-11.39221l-3.33362,-22.30976l93.7497,0a9.42266,9.42266 0 0 0 9.42388,-9.42388l0,-167.85773a9.42266,9.42266 0 0 0 -9.42388,-9.42389z"/>
  <rect id="svg_16" fill="#ffffff" height="139.87094" width="249.99557" y="130.42445" x="365.82336"/>
  <circle id="svg_17" fill="#f2f2f2" r="1.58225" cy="125.99415" cx="490.82114"/>
  <circle id="svg_18" fill="#f2f2f2" r="6.01255" cy="294.34559" cx="490.82114"/>
  <polygon id="svg_19" fill="#3f3d56" points="481.452 357.952 481.452 361.117 311.202 361.117 311.202 358.585 311.436 357.952 315.632 346.56 477.971 346.56 481.452 357.952"/>
  <path id="svg_20" fill="#3f3d56" d="m546.969528,354.853999c-0.31011,1.3259 -1.481,2.72467 -4.1265,4.04741c-9.4935,4.74675 -28.797,-1.2658 -28.797,-1.2658s-14.87315,-2.53161 -14.87315,-9.17706a11.86592,11.86592 0 0 1 1.30377,-0.77528c3.99133,-2.11163 17.2253,-7.32222 40.69051,0.22062a9.78618,9.78618 0 0 1 4.46035,2.923a4.667,4.667 0 0 1 1.34202,4.02711z"/>
  <path id="svg_21" opacity="0.1" d="m546.969528,354.853999c-11.62,4.45247 -21.97744,4.78472 -32.607,-2.59805a23.34328,23.34328 0 0 0 -13.88583,-4.57268c3.99133,-2.11163 17.2253,-7.32222 40.69051,0.22062a9.78618,9.78618 0 0 1 4.46035,2.923a4.667,4.667 0 0 1 1.34197,4.02711z"/>
  <ellipse id="svg_22" fill="#f2f2f2" ry="1.2658" rx="4.11385" cy="350.99016" cx="532.40017"/>
  <polygon id="svg_23" opacity="0.1" points="481.452 357.952 481.452 361.117 311.202 361.117 311.202 358.585 311.436 357.952 481.452 357.952"/>
  <path id="svg_24" fill="#2f2e41" d="m94.661458,0.000149a8.55394,8.55394 0 0 0 -4.96126,1.1083c-1.476,1.0108 -2.40629,2.78162 -3.35588,4.42947a52.98576,52.98576 0 0 1 -14.43428,16.30464c-4.28894,3.142 -9.74169,7.05966 -9.00789,12.85269a17.37163,17.37163 0 0 0 2.09058,5.4255c3.9566,7.987 14.75357,14.15926 13.69156,23.27309c3.931,-6.58092 -1.327,-9.835 2.604,-16.41586c1.87205,-3.134 5.12412,-6.67168 7.95054,-4.70353c0.94637,0.659 1.56777,1.84095 2.55314,2.41917c2.35122,1.37972 4.85259,-1.258 6.93387,-3.12633c7.17685,-6.44263 17.383,-4.7548 26.31387,-2.74743c4.21624,0.94767 8.8473,2.191 11.33971,6.2207c3.277,5.29821 -3.11344,11.02034 -4.72807,17.01049a3.264,3.264 0 0 0 3.50293,4.06214c2.67975,-0.26434 5.8542,-0.481 6.01278,-1.65694c3.37154,0.12 7.50269,-0.26181 8.94728,-3.7725a14.76216,14.76216 0 0 0 0.69252,-4.29319c0.5302,-5.89718 3.0331,-11.27719 4.69119,-16.88993s2.37906,-12.1905 -0.41909,-17.1668a19.86362,19.86362 0 0 0 -3.666,-4.45557c-15.87901,-15.36675 -36.75642,-17.90092 -56.7515,-17.87811z"/>
  <path id="svg_25" fill="#ffd4aa" d="m82.137698,74.905199s3.4534,28.7784 -9.20909,31.08068s11.51136,41.4409 11.51136,41.4409l57.55681,6.90682l-13.81364,-46.04545s-9.20909,-3.45341 -3.4534,-26.47613s-42.59204,-6.90682 -42.59204,-6.90682z"/>
  <polygon id="svg_26" fill="#ffd4aa" points="47.028 569.318 51.633 632.631 75.806 632.631 68.9 569.318 47.028 569.318"/>
  <polygon id="svg_27" fill="#ffd4aa" points="224.303 449.6 227.756 502.552 254.233 491.041 243.872 447.298 224.303 449.6"/>
  <path id="svg_28" fill="#2f2e41" d="m29.760998,327.579599s1.15113,66.7659 8.058,88.63749s5.75568,23.02272 4.60455,26.47613s-2.30228,1.15114 -2.30228,6.90682s-2.30227,96.69544 0,104.7534s-6.90681,21.87159 0,23.02272s39.13863,0 40.28977,-6.90682s-9.20909,-9.20909 -4.60454,-13.81363s11.51136,-98.99772 11.51136,-98.99772l16.11591,-65.61476l29.92954,-34.53409l63.31244,0l19.56932,75.975s-8.058,21.87159 -2.30228,21.87159s40.28977,6.90682 40.28977,-18.41818s-11.51136,-100.14886 -13.81361,-102.45113s1.15113,-10.36023 -2.30228,-13.81364s-43.74317,-27.62727 -58.70794,-32.23181s-35.95778,-10.08487 -35.95778,-10.08487l-113.68995,49.2235z"/>
  <path id="svg_29" fill="#2f2e41" d="m254.232558,481.831849s-17.267,-5.75568 -25.325,11.51137s-4.60454,21.87159 -4.60454,21.87159s26.47613,9.20909 31.08068,4.60454c2.00333,-2.00334 8.36471,-2.69926 14.91273,-2.84621c9.97289,-0.22381 12.62625,-14.33323 3.20748,-17.61885q-0.42145,-0.147 -0.85317,-0.25539c-9.20909,-2.30227 -18.41818,-17.26705 -18.41818,-17.26705z"/>
  <circle id="svg_30" fill="#ffd4aa" r="34.53409" cy="59.36486" cx="108.03826"/>
  <path id="svg_31" fill="#007fff" d="m63.143948,120.375079s56.40567,11.51136 70.21931,-6.90682s19.56931,51.80113 19.56931,51.80113l6.90682,73.67272l-10.36023,40.28977s-54.1034,43.74318 -71.37044,47.19658s-43.74318,5.75569 -43.74318,5.75569s8.058,-127.77613 8.058,-130.0784s20.72041,-81.73067 20.72041,-81.73067z"/>
  <path id="svg_32" fill="#2f2e41" d="m80.298278,98.785899s-12.54979,-7.18923 -16.0032,-0.28241s-35.68522,24.17385 -39.13863,24.17385s6.90682,95.54431 2.30227,107.05567s-26.47613,95.54433 -13.81363,102.45114s3.45341,-6.90682 16.11591,10.36022s74.82385,17.267 78.27726,10.36023s-27.62727,-58.708 -21.87159,-107.05567s14.96477,-115.11362 6.90682,-124.32271s-12.77521,-22.74032 -12.77521,-22.74032z"/>
  <path id="svg_33" fill="#2f2e41" d="m121.851948,106.561439l1.60341,-5.518s47.89544,15.87824 50.19772,26.23847s1.15113,82.88181 -6.90682,88.63749s-19.56932,14.96477 -11.51136,28.7784s17.267,28.77841 24.17386,29.92954s19.56931,9.20909 16.1159,17.267s-44.89431,-6.90682 -44.89431,-6.90682s-27.62727,-20.72045 -26.47613,-52.95227s-2.30227,-125.47381 -2.30227,-125.47381z"/>
  <path id="svg_34" fill="#ffd4aa" d="m162.141658,242.395519l-27.62727,51.80113s-40.28976,41.4409 -17.267,46.04545s35.68522,-37.9875 35.68522,-37.9875l29.92955,-42.592l-20.7205,-17.26708z"/>
  <path id="svg_35" fill="#2f2e41" d="m96.343758,9.035909a7.83806,7.83806 0 0 0 -4.03868,0.78334a9.41322,9.41322 0 0 0 -2.73182,3.13072a39.77267,39.77267 0 0 1 -11.7501,11.524c-3.49138,2.22077 -7.93014,4.98972 -7.3328,9.0842a11.35949,11.35949 0 0 0 1.70182,3.8347a30.16344,30.16344 0 0 1 3.66519,18.80068l9.60011,-13.954c1.52393,-2.21507 4.17125,-4.7155 6.47207,-3.32442c0.77039,0.46577 1.27623,1.30117 2.07836,1.70985c1.914,0.97518 3.95021,-0.88912 5.64447,-2.20967c5.84225,-4.55361 14.15049,-3.36066 21.42059,-1.94187c3.43219,0.66981 7.20207,1.54859 9.231,4.39676c3.37169,4.73311 -0.149,11.5721 1.81882,17.04a5.02339,5.02339 0 0 0 2.07852,-3.31717c2.74457,0.08484 6.1075,-0.185 7.28345,-2.66638a9.18757,9.18757 0 0 0 0.56374,-3.03439c0.43161,-4.16809 2.46907,-7.97065 3.81883,-11.93769s1.93666,-8.61616 -0.34116,-12.13338a14.68107,14.68107 0 0 0 -2.98426,-3.14917c-12.92622,-10.8611 -29.92132,-12.65223 -46.19815,-12.63611z"/>
  <path id="svg_36" fill="#2f2e41" d="m162.141658,122.677339l10.72528,2.84686s24.95995,63.919 19.20427,107.66222s-9.20909,34.53409 -9.20909,34.53409s-9.20909,-20.72046 -29.92955,-16.11591l9.20909,-128.92726z"/>
  <path id="svg_37" fill="#2f2e41" d="m48.622888,624.263339c-2.77592,3.77228 -2.21935,9.16459 -4.67828,13.15075c-2.13144,3.45526 -6.14837,5.26695 -8.81439,8.32869a22.32616,22.32616 0 0 0 -2.26617,3.25987c-2.47311,4.14255 -4.4833,9.45174 -2.04761,13.61641c1.95936,3.35022 6.07786,4.65961 9.855,5.552c4.77407,1.128 9.73436,2.03071 14.56354,1.16876s9.54882,-3.819 11.27067,-8.41239a32.50011,32.50011 0 0 1 1.2051,-3.4007c2.61747,-5.15294 10.82749,-5.20864 13.50628,-10.33c1.87466,-3.584 0.15138,-7.91623 -1.57118,-11.57578l-5.26109,-11.1771c-1.74592,-3.70919 -8.82362,-1.57608 -12.51339,-2.46492c-4.81224,-1.15915 -9.78658,-2.43633 -13.24848,2.28441z"/>
  <path id="svg_38" fill="#ffd4aa" d="m10.191678,265.418239l48.34772,74.82386s29.92954,37.98749 39.13863,20.72045s-32.23181,-46.04545 -32.23181,-46.04545l-31.08068,-57.55676l-24.17386,8.0579z"/>
  <path id="svg_39" fill="#2f2e41" d="m34.365538,124.979619l-9.20909,-2.30228s-18.41818,5.75568 -23.02272,29.92954s-1.15114,120.86931 4.60454,122.02044s28.42725,-16.83663 32.05624,-13.02286s-7.88238,-15.75554 -4.429,-26.11577s0.00003,-110.50907 0.00003,-110.50907z"/>
  <g id="f3c2397c-d780-4cc6-97d8-1503d8277a2c">
   <rect fill="#56aaff" height="7.1626" width="29.75235" y="176.36275" x="437.40692" id="ad41612f-86f7-46b2-a964-3a5da7bcf3cf"/>
   <rect fill="#56aaff" height="7.1626" width="10.46842" y="176.36275" x="559.72215" id="b9a0b375-cc2a-4c59-8850-661af54e4f62"/>
   <rect fill="#56aaff" height="7.1626" width="10.46842" y="176.36275" x="580.65899" id="e174c2ab-9bc5-41ec-b37c-b06fbf8a9878"/>
   <rect fill="#56aaff" height="7.1626" width="71.07506" y="176.36275" x="477.62768" id="ba2479ac-4c7d-43b4-a028-73b1e20e4002"/>
   <rect fill="#56aaff" height="7.1626" width="29.75235" y="222.6442" x="399.94099" id="ac60ef86-00f2-480b-8171-28b6fdfc1958"/>
   <rect fill="#56aaff" height="7.1626" width="10.46842" y="222.6442" x="522.25621" id="b3d8298d-cd65-487a-8b19-4cee946356e7"/>
   <rect fill="#56aaff" height="7.1626" width="10.46842" y="222.6442" x="543.19305" id="ed27f15f-f0c4-4569-8330-a6688f8e356c"/>
   <rect fill="#56aaff" height="7.1626" width="71.07506" y="222.6442" x="440.16176" id="f685c005-adaf-4d60-acda-005b037d82a6"/>
   <rect fill="#56aaff" height="7.1626" width="29.75235" y="192.34088" x="522.80718" id="eca7c7fc-83f8-48ca-a588-6606db47af3f"/>
   <rect fill="#56aaff" height="7.1626" width="29.75235" y="192.34088" x="563.02795" id="a71b5b2f-f8b9-481d-a301-5e3357e5fe42"/>
   <rect fill="#56aaff" height="7.1626" width="10.46842" y="192.34088" x="399.94099" id="abb3a25a-f854-41fc-8391-e6ad9fbe2417"/>
   <rect fill="#56aaff" height="7.1626" width="10.46842" y="192.34088" x="420.87784" id="add2b425-b775-4eb5-9c25-8c4c14f957c9"/>
   <rect fill="#56aaff" height="7.1626" width="71.07506" y="192.34088" x="441.81466" id="b7159612-3b84-4b0b-a885-612eaab04c06"/>
   <rect fill="#56aaff" height="7.1626" width="29.75235" y="207.76802" x="461.09859" id="edfc7301-4de5-47dc-80e2-1ae2da982d6d"/>
   <rect fill="#56aaff" height="7.1626" width="29.75235" y="207.76802" x="420.87783" id="e1009f91-6275-4375-80fa-0d778e331fdc"/>
   <rect fill="#56aaff" height="7.1626" width="10.46842" y="207.76802" x="399.941" id="a060fb9f-1f1a-4862-9a69-16dd49199e18"/>
   <rect fill="#56aaff" height="7.1626" width="10.46842" y="207.76802" x="582.31189" id="b6754d5f-104f-449c-b9a9-cf9ac82bf5fe"/>
   <rect fill="#56aaff" height="7.1626" width="71.07506" y="207.76802" x="500.76841" id="e6ed1ccd-2cfd-450f-a339-07df3a1ee6bb"/>
  </g>
 </g>
</svg>