<svg width="530" height="550.95456" xmlns="http://www.w3.org/2000/svg">
 <title>unDraw_1000</title>

 <g>
  <title>background</title>
  <rect fill="none" id="canvas_background" height="552.95456" width="532" y="-1" x="-1"/>
 </g>
 <g>
  <title>Layer 1</title>
  <path id="svg_2" fill="#2f2e41" d="m428.39835,423.548s0,68.257 15.66554,86.16044c0,0 3.3569,8.95173 4.47587,12.30863a47.0472,47.0472 0 0 0 2.23793,5.59484l0,4.47587s30.2121,-3.3569 33.569,-11.18967l-5.59483,-6.7138s-1.119,-1.119 0,-4.47587a2.29864,2.29864 0 0 0 -2.23794,-3.3569l-7.83276,-17.90347l1.119,-73.8518l-5.59483,-101.826l-48.11557,-2.23793l12.30859,113.01566z"/>
  <path id="svg_3" fill="#2f2e41" d="m453.01562,525.37397s-7.83276,23.49831 0,24.61727s76.08974,2.23794 74.97078,-6.7138s-23.49831,-7.83276 -23.49831,-7.83276l-23.4983,-14.54657l-27.97417,4.47586z"/>
  <path id="svg_4" fill="#2f2e41" d="m383.63968,312.77028s-2.23793,14.54657 6.71381,30.2121s3.3569,68.257 3.3569,68.257l-79.44664,69.3759s15.66553,26.85521 21.26036,25.73624s93.99321,-72.73284 93.99321,-72.73284l34.688,-116.37254l-80.56564,-4.47586z"/>
  <path id="svg_5" fill="#2f2e41" d="m315.35553,477.65041s-24.04067,5.96395 -20.79253,13.17879s38.84421,65.46589 45.8061,59.72849s-5.96395,-24.04067 -5.96395,-24.04067l-0.29326,-27.63488l-18.75636,-21.23173z"/>
  <circle id="svg_6" fill="#ffb8b8" r="25.73624" cy="104.64248" cx="427.27939"/>
  <path id="svg_7" fill="#ffb8b8" d="m407.02967,113.72312l1.13832,33.11773l21.65512,8.55623s2.12366,-33.91038 5.12142,-35.79035s-27.91486,-5.88361 -27.91486,-5.88361z"/>
  <path id="svg_8" fill="#575a89" d="m435.11216,159.47185s-30.21211,-30.2121 -38.04487,-29.09314s-7.83277,4.47587 -7.83277,6.7138s2.23793,3.3569 0,4.47587s-4.47587,0 -4.47587,3.3569s-20.1414,36.9259 -13.4276,73.85181s14.54657,54.82937 11.18967,74.97077s-1.119,24.61727 -1.119,24.61727s83.92251,6.7138 85.04147,-1.119s-3.3569,-3.3569 2.23794,-8.95173s3.3569,-5.59484 3.3569,-8.95174s-24.61724,-139.87081 -36.92587,-139.87081z"/>
  <path id="svg_9" fill="#ffb8b8" d="m419.44662,311.65133s13.4276,32.45 23.4983,24.61726s-4.47586,-34.688 -4.47586,-34.688l-19.02244,10.07074z"/>
  <path id="svg_10" fill="#575a89" d="m386.99658,161.70978s-26.29016,3.00986 -16.502,51.29895s47.833,104.23743 47.833,104.23743l25.73624,-12.30863l-33.569,-66.019l7.83276,-41.40177s4.47594,-39.16388 -31.331,-35.80698z"/>
  <polygon id="svg_11" opacity="0.2" points="409.93499755859375,239.47799682617188 446.86102294921875,301.02099609375 443.5040283203125,304.37799072265625 409.93499755859375,239.47799682617188 "/>
  <polygon id="svg_12" opacity="0.2" points="390.3900146484375,268.1579895019531 420.0059814453125,316.68701171875 409.93499755859375,316.68701171875 390.3900146484375,268.1579895019531 "/>
  <path id="svg_13" fill="#2f2e41" d="m415.63083,120.10728c2.08351,-1.10162 4.50375,-1.32873 6.7589,-2.01345c8.06829,-2.44973 13.47322,-11.5705 11.74763,-19.824a10.11528,10.11528 0 0 1 -0.42376,-3.26724c0.30165,-2.44445 2.8029,-4.0217 5.20137,-4.58178s4.95039,-0.47874 7.24281,-1.37937c3.53954,-1.3906 5.89072,-5.02809 6.4004,-8.79668a18.17088,18.17088 0 0 0 -2.42733,-10.952l-0.86635,2.493a9.24721,9.24721 0 0 1 -2.83074,-4.23375a5.832,5.832 0 0 0 -4.4435,3.5733c-1.39062,0.82 -1.591,-2.54755 -3.127,-3.04435a2.75911,2.75911 0 0 0 -1.91726,0.4729c-3.0952,1.44361 -6.69134,0.20933 -10.01157,-0.59088a37.6878,37.6878 0 0 0 -17.49529,-0.0206c-3.82183,0.91158 -7.60478,2.499 -10.33957,5.32a24.80936,24.80936 0 0 0 -4.83683,8.31133c-2.93319,7.38193 -4.87092,15.36941 -3.90262,23.2535a32.91485,32.91485 0 0 0 7.75684,17.43943c2.21469,2.55167 9.4403,11.45374 13.40222,9.936c4.97821,-1.90701 -1.75394,-8.99406 4.11165,-12.09536z"/>
  <rect id="svg_14" opacity="0.2" transform="matrix(0.35636,-0.93435,0.93435,0.35636,-148.60029,893.71385) " height="1.59219" width="82.62857" y="374.616431" x="635.373536"/>
  <circle id="svg_15" fill="#d0cde1" r="1.59181" cy="164.02378" cx="434.95352"/>
  <line id="svg_16" fill="#d0cde1" y2="207.79855" x2="448.48391" y1="164.02378" x1="434.95352"/>
  <path id="svg_17" fill="#d0cde1" d="m448.48391,208.59446a0.79551,0.79551 0 0 1 -0.76016,-0.56118l-13.53038,-43.77438a0.79568,0.79568 0 1 1 1.5203,-0.47024l13.53039,43.77516a0.79658,0.79658 0 0 1 -0.76015,1.03064z"/>
  <polygon id="svg_18" fill="#ffb8b8" points="45.31199645996094,479.9289855957031 41.13999938964844,530.823974609375 56.993011474609375,530.823974609375 65.33599853515625,479.9289855957031 45.31199645996094,479.9289855957031 "/>
  <polygon id="svg_19" fill="#ffb8b8" points="147.10299682617188,479.9289855957031 142.93099975585938,530.823974609375 158.78399658203125,530.823974609375 167.12701416015625,479.9289855957031 147.10299682617188,479.9289855957031 "/>
  <path id="svg_20" fill="#ffb8b8" d="m154.40074,200.23737l-1.60547,24.27231l-9.03841,73.34073s-11.37724,34.55327 4.98458,30.87453s11.11169,-32.7066 11.11169,-32.7066l10.6171,-68.59005l4.24392,-24.26988l-20.31341,-2.92104z"/>
  <polygon id="svg_21" fill="#575a89" points="168.37899780273438,165.7949981689453 175.88800048828125,212.5189971923828 150.02301025390625,210.01600646972656 157.53201293945312,164.12600708007812 168.37899780273438,165.7949981689453 "/>
  <circle id="svg_22" fill="#ffb8b8" r="23.36187" cy="100.29836" cx="132.91885"/>
  <path id="svg_23" fill="#ffb8b8" d="m148.35438,108.2247s7.50917,16.68706 11.68093,25.86493s3.33741,10.84659 3.33741,10.84659l-34.20845,0s3.33741,-23.36187 0,-25.86493s19.19011,-10.84659 19.19011,-10.84659z"/>
  <path id="svg_24" fill="#575a89" d="m142.51391,229.20583s46.72374,-57.57033 23.36187,-87.607c1.29181,-0.80515 -8.082,-11.6267 -14.184,-9.17788c-1.09507,0.43946 -24.19623,5.00611 -27.53364,8.34353s-17.93858,20.44163 -17.93858,20.44163s-8.34353,10.01223 -11.68094,31.7054s-10.4294,32.95693 -10.4294,32.95693"/>
  <path id="svg_25" fill="#2f2e41" d="m84.10923,225.86842l-1.66871,13.34964l-34.62563,130.57622l-17.93858,115.55779c8.58529,14.05256 27.16064,16.29605 55.06727,7.50918l5.42329,-113.88913l25.03058,-62.57645l10.42941,176.46561c22.67746,7.53672 43.13751,5.92643 61.74209,-3.33741l-31.28822,-186.47784s15.43552,-27.11646 -12.09812,-62.15926l-1.6687,-11.68094"/>
  <path id="svg_26" fill="#ffb8b8" d="m109.1398,195.83173l-9.17787,22.52755l-31.7054,66.7482s-21.69317,29.20234 -5.00612,30.871s20.85882,-27.53364 20.85882,-27.53364l31.7054,-61.74209l11.68093,-21.69317l-18.35576,-9.17785z"/>
  <path id="svg_27" fill="#2f2e41" d="m60.33018,511.63418l0,13.46867s9.62047,22.12709 2.88614,24.05119s-25.01324,0 -27.89938,0s-33.67167,2.88614 -32.70962,-5.77229s21.16505,-14.43071 21.16505,-14.43071l18.2789,-17.31686l18.27891,0z"/>
  <path id="svg_28" fill="#2f2e41" d="m162.95555,511.63418l0,13.46867s9.62047,22.12709 2.88614,24.05119s-25.01324,0 -27.89938,0s-33.67167,2.88614 -32.70962,-5.77229s21.16505,-14.43071 21.16505,-14.43071l18.2789,-17.31686l18.27891,0z"/>
  <path id="svg_29" fill="#575a89" d="m137.50779,138.2614s-16.687,4.17176 -24.19622,30.871s-9.17788,30.871 -9.17788,30.871l25.03058,11.68094l18.35573,-36.71143s10.84661,-31.7054 -10.01221,-36.71151z"/>
  <path id="svg_30" fill="#2f2e41" d="m107.96058,93.14664s-4.56507,-35.52744 32.68287,-23.87716c0,0 26.60272,-4.88121 35.32679,28.39472l8.83376,34.88138l-4.30511,-2.34324l-2.00706,4.38722l-6.97633,1.76672l-2.98532,-5.9253l-1.44416,7.19554l-57.13952,5.69633s25.59165,-15.13473 25.99746,-42.25978l-4.87467,5.15126l-23.10871,-13.06769z"/>
  <polygon id="svg_31" opacity="0.2" points="142.93099975585938,172.88699340820312 124.9580078125,209.7220001220703 128.74700927734375,211.26699829101562 142.93099975585938,172.88699340820312 "/>
  <polygon id="svg_32" opacity="0.2" points="122.07199096679688,167.88099670410156 104.55099487304688,200.42100524902344 101.2130126953125,200.42100524902344 122.07199096679688,167.88099670410156 "/>
  <polygon id="svg_33" opacity="0.2" points="168.2340087890625,184.03199768066406 155.385986328125,210.53500366210938 163.44100952148438,210.53500366210938 168.2340087890625,184.03199768066406 "/>
 </g>
</svg>