<svg width="800" height="727.07205" xmlns="http://www.w3.org/2000/svg">
 <title>share_opinion</title>

 <g>
  <title>background</title>
  <rect fill="none" id="canvas_background" height="729.07205" width="802" y="-1" x="-1"/>
 </g>
 <g>
  <title>Layer 1</title>
  <path id="svg_1" fill="#f2f2f2" d="m638.71546,707.924974l-229.21475,0.7592c-60.81041,-18.2721 -110.6323,-81.736 -110.94745,-176.88721a269.465,269.465 0 0 1 3.23812,-42.81223l184.62183,-41.4777l142.42432,-31.995a283.262,283.262 0 0 1 29.2563,30.4193l-136.19064,71.91231l-64.24719,33.92619l72.19443,-24.90689l149.84346,-51.69428a363.37031,363.37031 0 0 1 24.91622,44.67247l-45.211,46.72484l51.14435,-33.48237q0.32789,0.76935 0.653,1.54117c32.41337,76.95 -7.80331,173.08597 -72.481,173.3002z"/>
  <path id="svg_2" fill="#f2f2f2" d="m601.04658,393.975844c-34.66294,9.9552 -77.27874,22.53336 -121.09467,35.60691c-63.35144,18.90781 -129.20891,38.86137 -177.15523,53.44709l0.03129,-0.171a65.89939,65.89939 0 0 1 12.15994,-28.22451c35.51716,-46.17886 80.74259,-78.4385 131.07659,-90.4187l0.00442,0a188.90614,188.90614 0 0 1 43.20151,-5.1543c40.0459,-0.13262 77.97777,12.42751 111.77615,34.91451z"/>
  <path id="svg_19" fill="#3f3d56" d="m483.0806,33.130034l0,648.2a29.13909,29.13909 0 0 1 -29.13,29.11005l-263.15,0a29.07908,29.07908 0 0 1 -29.13,-29.11l0,-648.2a29.12748,29.12748 0 0 1 29.13,-29.13l39.38,0l0,5.05a23.987,23.987 0 0 0 23.98,23.99l133.84,0a23.78923,23.78923 0 0 0 14.22,-4.68a22.28455,22.28455 0 0 0 2.36,-1.98a23.917,23.917 0 0 0 7.4,-17.33l0,-5.05l41.97,0a29.12108,29.12108 0 0 1 29.13,29.12995z"/>
  <ellipse id="svg_20" opacity="0.1" ry="15" rx="75" cy="264.64206" cx="359"/>
  <ellipse id="svg_21" opacity="0.1" ry="15" rx="75" cy="341.64206" cx="250"/>
  <ellipse id="svg_22" opacity="0.1" ry="15" rx="75" cy="482.64206" cx="312"/>
  <ellipse id="svg_23" opacity="0.1" ry="15" rx="75" cy="635.64206" cx="291"/>
  <polygon id="svg_24" fill="#00b0ff" points="551.5,407.4960021972656 323.5,407.4960021972656 323.5,429.77398681640625 323.5,463.70001220703125 323.5,482.78900146484375 342.5880126953125,463.70001220703125 551.5,463.70001220703125 551.5,407.4960021972656 "/>
  <polygon id="svg_25" fill="#00b0ff" points="8,263.9960021972656 236,263.9960021972656 236,286.27398681640625 236,320.20001220703125 236,339.28900146484375 216.9119873046875,320.20001220703125 8,320.20001220703125 8,263.9960021972656 "/>
  <rect id="svg_26" fill="#fff" height="10.4" width="128.26667" y="421.14206" x="374.36667"/>
  <rect id="svg_27" fill="#fff" height="10.4" width="128.26667" y="436.74206" x="374.36667"/>
  <rect id="svg_28" fill="#fff" height="10.4" width="128.26667" y="278.64206" x="46.86667"/>
  <rect id="svg_29" fill="#fff" height="10.4" width="128.26667" y="294.24206" x="46.86667"/>
  <polygon id="svg_30" fill="#00b0ff" points="789,122.64199829101562 359,122.64199829101562 359,164.6580047607422 359,228.64199829101562 359,264.6419982910156 395,228.64199829101562 789,228.64199829101562 789,122.64199829101562 "/>
  <rect id="svg_31" fill="#fff" height="24" width="296" y="146.64206" x="426"/>
  <rect id="svg_32" fill="#fff" height="24" width="296" y="182.64206" x="426"/>
  <path id="svg_33" fill="#fff" d="m263.84011,605.650834c10.94518,20.29833 34.17479,29.012 34.17479,29.012s5.484,-24.19645 -5.46122,-44.49478s-34.1748,-29.012 -34.1748,-29.012s-5.48396,24.19646 5.46123,44.49478z"/>
  <path id="svg_34" fill="#00b0ff" d="m271.36315,598.972834c19.76057,11.88861 27.371,35.50266 27.371,35.50266s-24.42779,4.33881 -44.18836,-7.5498s-27.371,-35.50266 -27.371,-35.50266s24.42779,-4.33881 44.18836,7.5498z"/>
 </g>
</svg>